<?xml version="1.0" encoding="UTF-8"?>
<svg xmlns="http://www.w3.org/2000/svg" xmlns:xlink="http://www.w3.org/1999/xlink" viewBox="0 0 144 144" width="144px" height="144px">
<g id="surface59505120">
<path style=" stroke:none;fill-rule:nonzero;fill:rgb(90.196079%,31.764707%,0%);fill-opacity:1;" d="M 123 15 L 21 15 L 30 117 L 72 129 L 114 117 Z M 123 15 "/>
<path style=" stroke:none;fill-rule:nonzero;fill:rgb(100%,42.745098%,0%);fill-opacity:1;" d="M 72 24 L 72 119.699219 L 105.601562 110.101562 L 113.101562 24 Z M 72 24 "/>
<path style=" stroke:none;fill-rule:nonzero;fill:rgb(100%,100%,100%);fill-opacity:1;" d="M 72 75 L 72 63 L 97.800781 63 L 95.699219 97.5 L 72 105.300781 L 72 92.699219 L 84.300781 88.5 L 85.199219 75 Z M 98.699219 51 L 99.601562 39 L 72 39 L 72 51 Z M 98.699219 51 "/>
<path style=" stroke:none;fill-rule:nonzero;fill:rgb(93.333334%,93.333334%,93.333334%);fill-opacity:1;" d="M 72 92.699219 L 72 105.300781 L 48.300781 97.5 L 47.101562 81 L 59.101562 81 L 59.699219 88.5 Z M 57.300781 51 L 72 51 L 72 39 L 44.699219 39 L 46.800781 75 L 72 75 L 72 63 L 58.199219 63 Z M 57.300781 51 "/>
<path style=" stroke:none;fill-rule:nonzero;fill:rgb(0%,0%,0%);fill-opacity:1;" d="M 58.019531 2.644531 L 58.019531 6.855469 C 58.582031 6.175781 59.292969 5.835938 60.144531 5.835938 C 61.875 5.835938 62.75 6.839844 62.773438 8.847656 L 62.773438 13.949219 L 60.648438 13.949219 L 60.648438 8.90625 C 60.648438 8.449219 60.550781 8.113281 60.355469 7.894531 C 60.160156 7.675781 59.832031 7.570312 59.375 7.570312 C 58.753906 7.570312 58.304688 7.808594 58.019531 8.289062 L 58.019531 13.949219 L 55.890625 13.949219 L 55.890625 2.644531 Z M 64.800781 4.027344 L 66.925781 4.027344 L 66.925781 5.984375 L 68.28125 5.984375 L 68.28125 7.542969 L 66.925781 7.542969 L 66.925781 11.519531 C 66.925781 11.816406 66.980469 12.027344 67.09375 12.15625 C 67.207031 12.277344 67.421875 12.339844 67.738281 12.339844 C 67.980469 12.339844 68.1875 12.324219 68.367188 12.289062 L 68.367188 13.90625 C 67.949219 14.035156 67.519531 14.097656 67.078125 14.097656 C 65.585938 14.097656 64.828125 13.34375 64.800781 11.839844 L 64.800781 7.542969 L 63.636719 7.542969 L 63.636719 5.984375 L 64.800781 5.984375 Z M 69.472656 5.984375 L 71.464844 5.984375 L 71.53125 6.875 C 72.09375 6.179688 72.855469 5.835938 73.816406 5.835938 C 74.84375 5.835938 75.550781 6.238281 75.933594 7.050781 C 76.492188 6.238281 77.289062 5.835938 78.320312 5.835938 C 79.1875 5.835938 79.832031 6.089844 80.253906 6.597656 C 80.671875 7.097656 80.882812 7.855469 80.882812 8.867188 L 80.882812 13.949219 L 78.746094 13.949219 L 78.746094 8.875 C 78.746094 8.421875 78.660156 8.089844 78.488281 7.878906 C 78.308594 7.671875 77.996094 7.570312 77.550781 7.570312 C 76.914062 7.570312 76.472656 7.871094 76.226562 8.480469 L 76.234375 13.949219 L 74.109375 13.949219 L 74.109375 8.875 C 74.109375 8.417969 74.019531 8.085938 73.832031 7.878906 C 73.65625 7.671875 73.34375 7.570312 72.902344 7.570312 C 72.300781 7.570312 71.867188 7.820312 71.597656 8.320312 L 71.597656 13.949219 L 69.472656 13.949219 Z M 84.757812 2.644531 L 84.757812 13.949219 L 82.625 13.949219 L 82.625 2.644531 Z M 84.757812 2.644531 "/>
</g>
</svg>
